<?xml version="1.0" encoding="utf-8"?>
<!-- Generator: Adobe Illustrator 24.2.0, SVG Export Plug-In . SVG Version: 6.00 Build 0)  -->
<svg version="1.1" id="图层_1" xmlns="http://www.w3.org/2000/svg" xmlns:xlink="http://www.w3.org/1999/xlink" x="0px" y="0px"
	 viewBox="0 0 32 32" style="enable-background:new 0 0 32 32;" xml:space="preserve">
<path d="M31.6,29.8L26,24.2l0,0c1-1.1,1.7-2.4,2.3-3.8c0.8-1.8,1.2-3.7,1.2-5.7c0-2-0.4-3.9-1.2-5.7c-0.7-1.8-1.8-3.3-3.2-4.7
	c-1.4-1.4-2.9-2.4-4.7-3.2C18.7,0.4,16.7,0,14.8,0c-2,0-3.9,0.4-5.7,1.2C7.3,1.9,5.7,3,4.3,4.3C3,5.7,1.9,7.2,1.2,9
	C0.4,10.8,0,12.7,0,14.7s0.4,3.9,1.2,5.7c0.7,1.8,1.8,3.3,3.2,4.7c1.4,1.4,2.9,2.4,4.7,3.2c1.8,0.8,3.7,1.2,5.7,1.2s3.9-0.4,5.7-1.2
	c1.3-0.6,2.6-1.3,3.7-2.2c0,0,0,0,0,0l5.6,5.6c0.3,0.3,0.6,0.4,0.9,0.4c0.3,0,0.7-0.1,0.9-0.4C32.1,31.1,32.1,30.3,31.6,29.8z
	 M14.8,26.9c-3.3,0-6.3-1.3-8.6-3.6c-2.3-2.3-3.6-5.4-3.6-8.6s1.3-6.3,3.6-8.6c2.3-2.3,5.4-3.6,8.6-3.6s6.3,1.3,8.6,3.6
	c2.3,2.3,3.6,5.4,3.6,8.6s-1.3,6.3-3.6,8.6C21.1,25.7,18,26.9,14.8,26.9z"/>
<path d="M21.6,15.8H7.9c-0.7,0-1.3-0.6-1.3-1.3v0c0-0.7,0.6-1.3,1.3-1.3h13.6c0.7,0,1.3,0.6,1.3,1.3v0
	C22.8,15.2,22.3,15.8,21.6,15.8z"/>
<path d="M16,7.7v13.6c0,0.7-0.6,1.3-1.3,1.3h0c-0.7,0-1.3-0.6-1.3-1.3V7.7c0-0.7,0.6-1.3,1.3-1.3h0C15.5,6.4,16,7,16,7.7z"/>
</svg>
