<?xml version="1.0" encoding="utf-8"?>
<!-- Generator: Adobe Illustrator 24.2.0, SVG Export Plug-In . SVG Version: 6.00 Build 0)  -->
<svg version="1.1" id="图层_1" xmlns="http://www.w3.org/2000/svg" xmlns:xlink="http://www.w3.org/1999/xlink" x="0px" y="0px"
	 viewBox="0 0 32 32" style="enable-background:new 0 0 32 32;" xml:space="preserve">
<style type="text/css">
</style>
<path class="st0" d="M18,3.1l13.7,23.4c0.9,1.5-0.2,3.5-2,3.5H2.3c-1.8,0-2.9-1.9-2-3.5L14,3.1C14.9,1.6,17.1,1.6,18,3.1z
	 M17.6,24.4c0-0.9-0.7-1.6-1.6-1.6c-0.9,0-1.6,0.7-1.6,1.6c0,0.9,0.7,1.6,1.6,1.6C16.9,26,17.6,25.3,17.6,24.4z M17.4,11.7
	c0.1-0.8-0.5-1.7-1.5-1.7c-0.9,0-1.5,0.9-1.5,1.7l1,9.2h0.9L17.4,11.7z"/>
</svg>
