<?xml version="1.0" encoding="utf-8"?>
<!-- Generator: Adobe Illustrator 24.2.0, SVG Export Plug-In . SVG Version: 6.00 Build 0)  -->
<svg version="1.1" id="图层_1" xmlns="http://www.w3.org/2000/svg" xmlns:xlink="http://www.w3.org/1999/xlink" x="0px" y="0px"
	 viewBox="0 0 32 32" style="enable-background:new 0 0 32 32;" xml:space="preserve">
<path d="M16.4,2.7c-5.9,0-10.7,4.8-10.7,10.7S10.6,24,16.4,24s10.7-4.8,10.7-10.7S22.3,2.7,16.4,2.7z M3.1,13.3C3.1,6,9.1,0,16.4,0
	c7.4,0,13.3,6,13.3,13.3c0,7.4-6,13.3-13.3,13.3C9.1,26.7,3.1,20.7,3.1,13.3z"/>
<path d="M6.7,30.7c0-0.7,0.6-1.3,1.3-1.3l0,0h16c0.7,0,1.3,0.6,1.3,1.3S24.7,32,24,32l0,0H8C7.3,32,6.7,31.4,6.7,30.7L6.7,30.7z"/>
<path d="M14.4,24.2c0.7,0.3,0.9,1.1,0.6,1.8c0,0,0,0,0,0l-2.7,5.3c-0.3,0.6-1.1,0.9-1.8,0.6c-0.6-0.3-0.9-1.1-0.6-1.7l2.7-5.3
	C12.9,24.2,13.7,23.9,14.4,24.2z M18.5,24.2c-0.7,0.3-0.9,1.1-0.6,1.8c0,0,0,0,0,0l2.7,5.3c0.3,0.6,1.1,0.9,1.8,0.6
	c0.6-0.3,0.9-1.1,0.6-1.7l-2.7-5.3C20,24.2,19.2,23.9,18.5,24.2z M16.4,10c-1.9,0-3.5,1.5-3.5,3.4c0,1.9,1.6,3.4,3.5,3.4
	s3.5-1.5,3.5-3.4C19.9,11.6,18.4,10,16.4,10z M10.3,13.5c0-3.4,2.8-6.1,6.2-6.1s6.2,2.7,6.2,6.1c0,3.4-2.8,6.1-6.2,6.1
	S10.3,16.8,10.3,13.5z M16.4,0.9c0.7,0,1.3,0.6,1.3,1.3v2c0,0.7-0.6,1.3-1.3,1.3c-0.7,0-1.3-0.6-1.3-1.3v-2
	C15.1,1.5,15.7,0.9,16.4,0.9L16.4,0.9z"/>
</svg>
