<?xml version="1.0" encoding="utf-8"?>
<!-- Generator: Adobe Illustrator 24.2.0, SVG Export Plug-In . SVG Version: 6.00 Build 0)  -->
<svg version="1.1" id="图层_1" xmlns="http://www.w3.org/2000/svg" xmlns:xlink="http://www.w3.org/1999/xlink" x="0px" y="0px"
	 viewBox="0 0 32 32" style="enable-background:new 0 0 32 32;" xml:space="preserve">
<g>
	<g>
		<path d="M30.4,23.3H1.6C0.7,23.3,0,24,0,24.9v5.5C0,31.3,0.7,32,1.6,32h28.8c0.9,0,1.6-0.7,1.6-1.6v-5.5
			C32,24,31.3,23.3,30.4,23.3z M29.8,30.6H18.9v-2.9h10.9V30.6z M30.4,11.6H1.6c-0.9,0-1.6,0.7-1.6,1.6v5.5c0,0.9,0.7,1.6,1.6,1.6
			h28.8c0.9,0,1.6-0.7,1.6-1.6v-5.5C32,12.4,31.3,11.6,30.4,11.6z M6.6,18.9H1.4V16h5.1V18.9z M18.2,18.9H8.7V16h9.5V18.9z M30.4,0
			H1.6C0.7,0,0,0.7,0,1.6v5.5C0,8,0.7,8.7,1.6,8.7h28.8C31.3,8.7,32,8,32,7.1V1.6C32,0.7,31.3,0,30.4,0z M3.6,7.3H1.4V4.4h2.2V7.3z
			 M8,7.3H5.8V4.4H8V7.3z"/>
	</g>
</g>
</svg>
