<?xml version="1.0" encoding="utf-8"?>
<!-- Generator: Adobe Illustrator 24.2.0, SVG Export Plug-In . SVG Version: 6.00 Build 0)  -->
<svg version="1.1" id="图层_1" xmlns="http://www.w3.org/2000/svg" xmlns:xlink="http://www.w3.org/1999/xlink" x="0px" y="0px"
	 viewBox="0 0 32 32" style="enable-background:new 0 0 32 32;" xml:space="preserve">
<style type="text/css">
</style>
<path class="st0" d="M10.5,30.6l2.4-5.3l2.3,1l-2.4,5.3L10.5,30.6z M18.9,28.2l-3.7-3.6c-1.5-1.5-1.6-4,0-5.6c0,0,0,0,0,0l2.2,2.2
	c-0.1,0.7,0.1,1.5,0.6,2l2.3,2.2c0.8,0.8,2,0.8,2.8,0l2.1-2.1c0.8-0.8,0.8-2,0-2.8c0,0,0,0,0,0L23,18.3c-0.5-0.6-1.3-0.8-2-0.6
	l-2.2-2.2c1.5-1.5,4.1-1.6,5.6,0l3.7,3.6c1.5,1.5,1.6,4,0,5.6c0,0,0,0,0,0l-3.5,3.5c-0.7,0.7-1.8,1.2-2.8,1.2
	C20.7,29.4,19.7,29,18.9,28.2L18.9,28.2z M4.2,25.4l4.2-4l1.7,1.8l-4.2,4L4.2,25.4z M0,18.5l5.4-2.4l1,2.3L1,20.8L0,18.5z M7.3,16.6
	l-3.8-3.8c-1.5-1.5-1.5-4,0-5.5c0,0,0,0,0,0l3.4-3.5c1.5-1.5,4-1.5,5.5,0l3.8,3.8c1.5,1.5,1.5,4,0,5.5c0,0,0,0,0,0L14.1,11
	c0.2-0.7,0-1.5-0.6-2l-2.4-2.4c-0.8-0.8-2-0.8-2.8,0L6.3,8.7c-0.8,0.8-0.8,2,0,2.7c0,0,0,0,0,0l2.4,2.4c0.5,0.5,1.3,0.8,2,0.6
	l2.1,2.1c-0.7,0.7-1.7,1.1-2.8,1.1C9,17.7,8.1,17.3,7.3,16.6C7.3,16.6,7.3,16.6,7.3,16.6z M25.6,13.4l5.3-2.5l1.1,2.3l-5.3,2.5
	L25.6,13.4z M21.7,8.8l4.1-4.1l1.8,1.8l-4.1,4.1L21.7,8.8z M16.7,5.8L19,0.4l2.3,1L19,6.7C19,6.7,16.7,5.8,16.7,5.8z"/>
</svg>
